# xmcd
#
# Track frame offsets: 
#        150
#        22063
#        41468
#        56651
#        87415
#        106589
#        133221
#        146628
#        163928
#        184109
#
# Disc length: 2534 seconds
#
# Revision: 0
# Processed by: cddbd v1.5.1PL2 Copyright (c) Steve Scherf et al.
# Submitted via: ExactAudioCopy v0.90b2
#
DISCID=8b09e40a
DTITLE=Robin Trower - KSAN 13 January 1973
DYEAR=1900
DGENRE=Electric Blues
TTITLE0=The Fool and Me
TTITLE1=Twice Removed From Yesterday
TTITLE2=Lady Love
TTITLE3=Daydream
TTITLE4=Day of the Eagle
TTITLE5=I Can't Wait Much Longer
TTITLE6=Man of the World
TTITLE7=Sinner's Song
TTITLE8=A Little Bit of Sympathy
TTITLE9=Tom Donohue Outro>KSAN Commercial
EXTD=Live in the KSAN Studios, January 13, 1973.  FM broadcast.
EXTT0=
EXTT1=
EXTT2=
EXTT3=
EXTT4=
EXTT5=
EXTT6=
EXTT7=
EXTT8=
EXTT9=
PLAYORDER=
